<svg width="385" height="263" viewBox="0 0 385 263" fill="none" xmlns="http://www.w3.org/2000/svg">
<path d="M364.127 175.129C368.021 153.226 360.204 132.053 345.292 117.976C344.769 85.737 321.817 57.4398 289.119 51.6255C271.418 48.478 254.121 52.5647 240.158 61.6782C233.281 50.9054 222.167 43.0456 208.727 40.6558C194.795 38.1785 181.155 42.148 170.883 50.4683C165.884 33.8902 152.083 20.6925 134.136 17.5012C115.452 14.1787 97.3236 22.4663 87.1641 37.2869C85.7856 36.9565 84.4072 36.6262 83.014 36.3784C54.2496 31.2636 26.7052 50.6669 21.5464 79.6785C19.5916 90.6715 21.1291 101.518 25.3664 110.969C23.8268 114.873 22.6675 119.016 21.9032 123.314C15.5686 158.938 39.107 192.967 74.4273 199.247C85.8184 201.273 97.0976 200.124 107.299 196.48C116.323 208.488 129.726 217.266 145.706 220.108C157.753 222.25 169.694 220.707 180.205 216.266C185.15 219.362 190.681 221.539 196.745 222.618C202.236 223.594 207.575 223.52 212.801 222.659C222.867 234.51 236.835 242.963 253.225 245.877C276.581 250.03 299.334 241.883 314.912 226.065C339.326 220.941 359.453 201.413 364.127 175.129Z" fill="url(#paint0_linear)"/>
<defs>
<linearGradient id="paint0_linear" x1="174.266" y1="24.9124" x2="174.266" y2="231.837" gradientUnits="userSpaceOnUse">
<stop offset="0.127984" stop-color="white"/>
<stop offset="0.738416" stop-color="#FFB7A0"/>
</linearGradient>
</defs>
</svg>
