<svg width="1440" height="301" viewBox="0 0 1440 301" fill="none" xmlns="http://www.w3.org/2000/svg">
<path fill-rule="evenodd" clip-rule="evenodd" d="M907.5 237C925.851 237 943.227 232.829 958.733 225.383C974.393 235.878 993.232 242 1013.5 242C1046.53 242 1075.76 225.746 1093.63 200.8C1097.61 200.516 1101.51 199.934 1105.3 199.074C1118.18 216.042 1138.56 227 1161.5 227C1164.28 227 1167.03 226.839 1169.73 226.525C1184.39 239.279 1203.54 247 1224.5 247C1245.39 247 1264.49 239.328 1279.13 226.648C1292.18 239.248 1309.93 247 1329.5 247C1334.49 247 1339.35 246.497 1344.06 245.538C1357.03 267.935 1381.26 283 1409 283C1418.25 283 1427.1 281.327 1435.28 278.266C1446.74 292.151 1464.09 301 1483.5 301C1518.02 301 1546 273.018 1546 238.5C1546 203.982 1518.02 176 1483.5 176C1481.31 176 1479.14 176.113 1477.01 176.333C1465.07 150.738 1439.11 133 1409 133C1402.62 133 1396.42 133.798 1390.5 135.299C1377.6 115.267 1355.1 102 1329.5 102C1315.37 102 1302.18 106.043 1291.03 113.036C1275.78 92.962 1251.65 80 1224.5 80C1210.17 80 1196.68 83.6112 1184.89 89.9735C1177.57 87.3998 1169.7 86 1161.5 86C1159.91 86 1158.33 86.0527 1156.77 86.1563C1143.61 61.6581 1117.75 45 1088 45C1075.43 45 1063.55 47.9737 1053.04 53.256C1040.94 47.9466 1027.56 45 1013.5 45C1009.29 45 1005.14 45.2643 1001.07 45.7771C979.385 17.9197 945.535 0 907.5 0C871.275 0 838.847 16.2543 817.11 41.8673C805.936 37.4357 793.752 35 781 35C745.194 35 713.873 54.2025 696.774 82.871C678.784 56.3933 648.423 39 614 39C567.112 39 527.761 71.2697 516.945 114.812C501.763 100.659 481.393 92 459 92C452.074 92 445.342 92.8283 438.897 94.3912C419.897 76.7717 394.456 66 366.5 66C350.094 66 334.555 69.7094 320.675 76.3353C311.108 73.514 300.981 72 290.5 72C283.434 72 276.529 72.6881 269.849 74.0008C252.335 59.6273 229.925 51 205.5 51C189.879 51 175.082 54.5289 161.863 60.833C144.426 36.7024 116.047 21 84 21C30.9807 21 -12 63.9807 -12 117C-12 170.019 30.9807 213 84 213C96.4997 213 108.441 210.611 119.393 206.265C137.332 234.933 169.189 254 205.5 254C208.687 254 211.84 253.853 214.953 253.566C234.244 272.98 260.968 285 290.5 285C306.906 285 322.445 281.291 336.324 274.665C345.892 277.486 356.019 279 366.5 279C390.735 279 413.079 270.905 430.976 257.272C439.751 260.335 449.181 262 459 262C482.334 262 503.473 252.597 518.833 237.374C535.126 254.398 558.075 265 583.5 265C612.103 265 637.572 251.582 653.956 230.698C673.591 222.131 689.941 207.442 700.596 189.044C718.309 214.408 747.717 231 781 231C801.724 231 820.945 224.567 836.776 213.59C856.516 228.296 880.992 237 907.5 237Z" fill="white"/>
</svg>
