<svg width="690" height="670" viewBox="0 0 690 670" fill="none" xmlns="http://www.w3.org/2000/svg">
<path d="M256.261 644.564C311.258 661.655 292.194 600.406 282.678 588.412C273.162 576.419 261.742 565.301 256.261 550.909C253.121 542.59 251.827 532.919 245.165 527.018C240.674 523.039 234.412 521.497 230.035 517.385C220.842 508.742 223.887 493.779 227.085 481.577C230.282 469.374 231.691 453.668 221.128 446.777C214.124 442.227 204.741 443.845 197.033 440.647C186.851 436.383 181.807 424.484 181.484 413.462C181.16 402.44 184.453 391.646 186.014 380.718C194.102 324.559 156.742 269.333 164.412 213.193C159.578 212.907 153.354 212.431 148.539 212.165C149.053 252.142 149.548 292.444 141.935 331.698C134.322 370.952 117.898 409.559 89.064 437.258C78.0064 447.862 64.0368 459.741 66.2255 474.914C67.5197 484.242 75.0374 493.189 71.9351 502.06C70.4887 506.153 67.0248 509.142 63.8465 512.112C54.0321 521.2 46.036 532.073 40.2847 544.151C29.3984 567.338 -9.65479 596.506 2.22441 624.264C46.3721 663.074 83.25 590.801 256.261 644.564Z" fill="url(#paint0_linear)"/>
<path d="M130.649 125.622C131.368 119.839 133.615 114.352 137.158 109.726C137.788 108.865 138.654 108.204 139.651 107.823C142.144 107.08 144.409 109.441 145.837 111.63C154.097 124.366 157.598 139.5 160.834 154.33C164.678 172.073 168.485 189.967 168.485 208.11C168.579 209.136 168.416 210.17 168.009 211.117C167.118 212.428 165.753 213.342 164.203 213.668C158.246 215.572 146.617 217.933 141.954 212.241C137.824 207.196 137.938 195.393 136.644 189.396C132.191 168.475 126.9 147.001 130.649 125.622Z" fill="#E1D7CF"/>
<path d="M340.649 75.7451C342.952 76.1259 457.982 124.784 457.982 124.784C457.982 124.784 460.666 171.349 460.285 170.188C459.905 169.027 150.633 199.048 151.032 196.364C151.432 193.679 146.788 137.806 146.788 137.806L247.373 87.015L340.649 75.7451Z" fill="#E1D7CF"/>
<path d="M333.741 86.9199C336.044 87.3197 453.091 137.52 453.091 137.52C453.091 137.52 460.704 171.349 460.285 170.188C459.867 169.027 150.633 199.048 151.033 196.364C151.432 193.68 147.55 150.504 147.55 150.504L248.42 98.5706L333.741 86.9199Z" fill="url(#paint1_linear)"/>
<path d="M232.985 193.622C236.506 196.364 239.703 200.266 244.176 200.533C246.313 200.497 248.42 200.018 250.361 199.124C252.803 198.505 254.943 197.033 256.395 194.974C256.863 193.952 257.153 192.858 257.251 191.738C258.517 181.91 257.069 171.922 253.064 162.859C251.656 159.66 252.436 150.427 249.258 148.904C246.079 147.382 239.741 153.816 236.221 154.33C235.865 154.369 235.518 154.465 235.193 154.616C234.051 155.244 234.146 156.881 234.374 158.156C235.819 165.992 236.507 173.948 236.43 181.915C236.221 179.288 233.194 177.765 230.568 177.784C226.457 177.784 220.043 181.781 221.756 186.769C222.346 188.444 224.135 188.882 225.563 189.51C228.203 190.557 230.697 191.939 232.985 193.622Z" fill="url(#paint2_linear)"/>
<path d="M243.205 175.994C243.901 176.197 244.641 176.197 245.337 175.994C246.802 175.48 247.24 173.653 247.354 172.187C247.344 170.181 247.153 168.18 246.783 166.209L244.994 154.939C244.985 154.679 244.899 154.427 244.747 154.216C244.598 154.083 244.422 153.983 244.232 153.924C244.042 153.865 243.841 153.848 243.643 153.873C240.38 153.91 237.153 154.556 234.127 155.777L235.154 164.02C235.181 164.398 235.265 164.77 235.402 165.124C235.58 165.458 235.777 165.782 235.992 166.095C237.324 168.189 235.992 170.683 237.172 172.644C238.352 174.604 241.321 175.537 243.205 175.994Z" fill="url(#paint3_linear)"/>
<path d="M274.018 1.61497C281.097 -0.719641 288.768 -0.517729 295.714 2.18608C297.347 2.76671 298.896 3.56044 300.32 4.54667C305.782 8.22082 310.807 13.1133 312.653 19.4146C313.433 22.0607 313.605 24.8782 314.461 27.5053C314.799 28.8489 315.456 30.0908 316.377 31.125C317.299 32.1593 318.456 32.9552 319.752 33.4449C319.029 34.4565 318.057 35.2636 316.929 35.7874C315.802 36.3112 314.558 36.5339 313.319 36.4337C315.151 39.3241 317.254 42.0333 319.6 44.5244C316.763 45.1134 313.816 44.8485 311.13 43.7629C311.952 45.7196 312.347 47.8286 312.291 49.95C309.962 49.7469 307.703 49.0457 305.668 47.894C305.451 48.6118 304.989 49.2311 304.364 49.6447C303.738 50.0584 302.988 50.2404 302.242 50.1594C300.754 49.9553 299.334 49.4079 298.093 48.5603L291.584 44.7529C286.617 42.1759 282.063 38.8714 278.072 34.9488C275.682 32.2249 273.643 29.2127 272 25.9824C270.459 23.1268 262.161 20.1761 261.913 16.8636C261.4 10.0674 268.27 2.73815 274.018 1.61497Z" fill="#3E3E54"/>
<path d="M248.705 152.122L251.465 163.258C252.018 165.653 252.717 168.012 253.558 170.321C256.28 177.27 261.704 183.152 263.075 190.481C263.322 191.719 263.588 193.185 264.749 193.68C265.468 193.907 266.239 193.907 266.957 193.68C273.809 192.157 280.946 192.994 287.892 192.347C293.113 191.689 298.282 190.678 303.365 189.32C319.13 185.634 335.139 183.089 351.269 181.705C352.906 181.553 354.866 181.21 355.475 179.687C355.678 179.074 355.736 178.423 355.647 177.784C354.714 163.144 348.034 149.628 343.409 135.712C343.217 135.359 343.108 134.967 343.091 134.565C343.074 134.164 343.149 133.764 343.311 133.396C343.473 133.029 343.717 132.703 344.024 132.444C344.331 132.186 344.694 132.001 345.084 131.904C355.517 126.669 365.411 120.42 374.622 113.248L362.936 95.4294C356.18 85.1114 348.814 74.2603 337.566 69.1584C330.543 65.9982 322.645 65.351 314.956 65.351C306.677 65.351 298.417 66.1315 290.214 66.8739C284.994 67.0862 279.804 67.7615 274.703 68.8918C260.791 72.6992 239.722 83.7978 234.736 94.8203C221.413 124.08 227.865 151.817 226.666 153.511C226.144 154.06 225.737 154.707 225.467 155.415C225.067 156.976 226.742 158.442 228.341 158.518C229.957 158.425 231.523 157.92 232.89 157.052C237.818 154.627 243.183 153.215 248.667 152.902C248.591 153.264 248.591 151.684 248.705 152.122Z" fill="white"/>
<path d="M306.925 128.287C306.975 132.021 306.778 135.754 306.334 139.462C306.321 140.14 306.116 140.799 305.744 141.366C304.901 142.136 303.804 142.57 302.661 142.584C289.681 144.24 276.511 143.822 263.398 143.422C262.831 143.437 262.267 143.333 261.742 143.117C261.169 142.768 260.728 142.239 260.486 141.613C259.287 139.062 257.784 133.998 260.753 131.923C263.722 129.848 270.687 130.743 274.075 130.515L306.925 128.287Z" fill="#E1D7CF"/>
<path d="M306.925 128.287C306.975 132.021 306.778 135.754 306.334 139.462C306.321 140.14 306.116 140.799 305.744 141.366C304.901 142.136 303.804 142.57 302.661 142.584C289.681 144.24 276.511 143.822 263.398 143.422C262.831 143.437 262.267 143.333 261.742 143.117C261.169 142.768 260.728 142.239 260.486 141.613C259.287 139.062 257.784 133.998 260.753 131.923C263.722 129.848 270.687 130.743 274.075 130.515L306.925 128.287Z" fill="url(#paint4_linear)"/>
<path d="M269.355 189.853C269.355 188.958 267.966 189.13 267.223 189.606C244.385 204.15 222.536 220.065 200.611 235.789C195.484 239.238 190.721 243.199 186.394 247.611C182.207 252.199 178.781 257.949 178.781 264.155C178.858 267.562 179.568 270.925 180.875 274.073C189.325 296.689 209.804 312.147 224.439 331.412C231.748 340.931 237.895 351.877 247.754 358.807C249.657 360.158 251.846 361.51 252.588 363.737C252.359 363.966 254.815 363.147 254.586 363.376C262.396 358.625 269.544 352.865 275.845 346.242C268.953 340.359 262.585 333.887 256.813 326.901C253.692 323.36 250.57 319.819 247.792 316.011C243.095 309.258 238.921 302.156 235.307 294.766C232.547 289.474 228.379 285.248 230.073 279.537C232.49 271.37 254.148 260.176 266.614 252.885C278.681 245.803 298.969 234.876 298.455 235.104C298.455 235.104 287.207 284.829 313.966 324.578C340.726 364.327 376.944 424.465 378.999 423.78C381.055 423.095 399.592 396.995 399.592 396.995L348.795 310.472C348.795 310.472 363.374 203.465 351.269 181.439L269.355 189.853Z" fill="#3E3E54"/>
<path d="M269.355 189.853C269.355 188.958 267.966 189.13 267.223 189.606C244.385 204.15 222.536 220.065 200.611 235.789C195.484 239.238 190.721 243.199 186.394 247.611C182.207 252.199 178.781 257.949 178.781 264.155C178.858 267.562 179.568 270.925 180.875 274.073C189.325 296.689 209.804 312.147 224.439 331.412C231.748 340.931 237.895 351.877 247.754 358.807C249.657 360.158 251.846 361.51 252.588 363.737C252.359 363.966 254.815 363.147 254.586 363.376C262.396 358.625 269.544 352.865 275.845 346.242C268.953 340.359 262.585 333.887 256.813 326.901C253.692 323.36 250.57 319.819 247.792 316.011C243.095 309.258 238.921 302.156 235.307 294.766C232.547 289.474 228.379 285.248 230.073 279.537C232.49 271.37 254.148 260.176 266.614 252.885C278.681 245.803 298.969 234.876 298.455 235.104C298.455 235.104 287.207 284.829 313.966 324.578C340.726 364.327 376.944 424.465 378.999 423.78C381.055 423.095 399.592 396.995 399.592 396.995L348.795 310.472C348.795 310.472 363.374 203.465 351.269 181.439L269.355 189.853Z" fill="url(#paint5_linear)"/>
<path d="M266.177 372.056C266.875 381.347 267.852 390.611 269.108 399.851C269.374 401.754 269.831 403.982 271.525 404.895C272.368 405.222 273.282 405.323 274.176 405.189C275.07 405.056 275.914 404.692 276.626 404.134C280.049 401.754 282.596 398.317 283.877 394.349C285.124 390.408 285.928 386.341 286.275 382.222L288.33 365.717C288.616 363.318 288.806 360.577 287.131 358.845C285.456 357.112 282.64 357.208 280.28 356.579C276.664 355.608 273.923 352.772 271.373 350.031C269.317 352.41 262.808 357.093 262.941 360.254C262.941 361.948 264.73 363.928 265.206 365.584C265.748 367.703 266.073 369.872 266.177 372.056Z" fill="#3E3E54"/>
<path d="M389.029 423.875C389.745 425.601 390.207 427.423 390.399 429.282C391.486 435.273 392.89 441.201 394.605 447.043C395.009 448.925 395.723 450.726 396.718 452.374C397.223 453.197 397.923 453.882 398.757 454.37C399.59 454.858 400.53 455.134 401.495 455.172C404.692 455.172 406.691 451.745 407.928 448.814C410.425 443.385 412.081 437.608 412.838 431.68C413.56 425.754 412.373 419.752 409.45 414.547C408.969 413.639 408.261 412.872 407.395 412.32C406.205 411.882 404.964 411.601 403.703 411.482C400.315 410.645 398.259 407.199 395.233 405.485C394.944 405.28 394.599 405.167 394.244 405.162C393.687 405.256 393.188 405.563 392.854 406.019C390.139 408.948 387.717 412.136 385.622 415.537C384.233 417.802 383.833 418.107 385.793 419.897C387.112 421.008 388.21 422.357 389.029 423.875Z" fill="#3E3E54"/>
<path d="M670.405 657.7C696.655 639.665 692.477 589.307 675.063 558.733C670.704 551.119 666.213 543.104 658.962 538.135C651.71 533.167 640.786 532.31 634.772 538.726C630.213 521.665 623.069 505.403 613.589 490.505C605.101 477.179 593.872 464.443 578.703 460.046C563.535 455.648 544.255 462.92 540.43 478.226C527.45 478.987 517.591 465.947 514.774 453.268C511.958 440.59 513.461 427.169 509.997 414.642C507.694 406.247 503.184 398.328 502.784 389.647C501.966 371.143 546.406 353.8 513.937 336.343C540.43 310.377 499.434 319.8 493.668 310.377C489.861 304.075 488.453 296.594 487.159 289.303L468.831 185.075C464.377 186.122 458.325 190.9 453.872 191.947C461.751 277.366 468.926 367.335 433.355 445.387C426.009 461.492 416.454 477.35 401.743 487.269C392.588 493.398 381.949 496.787 371.71 500.937C355.228 507.467 338.937 516.167 328.031 530.14C317.126 544.113 312.806 564.407 321.465 579.884C327.727 591.096 320.723 603.834 321.465 616.646C368.593 638.716 401.743 651.729 462.195 634.414C532.593 634.414 529.523 671.555 566.599 667.253C615.667 661.559 634.772 682.181 670.405 657.7Z" fill="url(#paint6_linear)"/>
<path d="M437.713 100.912C438.438 95.1338 440.677 89.6499 444.203 85.0162C444.84 84.1532 445.712 83.4922 446.715 83.1125C449.209 82.351 451.473 84.7306 452.901 86.9199C461.161 99.6366 464.663 114.79 467.898 129.62C471.705 147.343 475.511 165.257 475.625 183.399C475.712 184.42 475.548 185.446 475.149 186.388C474.265 187.706 472.898 188.623 471.343 188.939C465.386 190.843 453.738 193.204 449.094 187.531C444.964 182.467 445.079 170.683 443.765 164.686C439.236 143.764 433.945 122.291 437.713 100.912Z" fill="#E1D7CF"/>
<path d="M299.807 68.0162C298.469 76.068 294.264 83.3639 287.969 88.5571C285.727 90.5269 283.054 91.942 280.165 92.6882C278.727 93.0496 277.228 93.0972 275.77 92.8278C274.312 92.5585 272.929 91.9785 271.715 91.1271C269.695 89.368 268.216 87.0703 267.452 84.5022C267.281 84.0263 267.109 83.5314 266.957 83.0554C266.466 81.359 266.478 79.5565 266.992 77.8668C267.505 76.1771 268.498 74.6729 269.85 73.5369C270.222 73.2005 270.549 72.8164 270.821 72.3947C270.986 72.1011 271.114 71.7876 271.201 71.4619C272.381 67.2737 270.345 64.0565 269.945 60.4204C269.947 59.4481 270.154 58.4872 270.555 57.6012C270.955 56.7151 271.539 55.9241 272.267 55.2804C275.645 51.2494 280.174 48.3468 285.247 46.9612C285.91 46.7811 286.597 46.704 287.283 46.7328C291.432 46.9232 292.194 50.5402 292.651 53.548C292.993 55.7944 293.336 58.0217 293.659 60.2681C293.821 62.1138 294.338 63.9108 295.182 65.5604C295.632 66.374 296.309 67.0393 297.13 67.4753C297.951 67.9113 298.881 68.0992 299.807 68.0162Z" fill="url(#paint7_linear)"/>
<path d="M289.358 47.8369C289.02 52.3634 287.954 56.8056 286.199 60.9915C281.003 72.2614 270.859 72.4137 270.859 72.4137C271.024 72.1201 271.152 71.8067 271.239 71.4809C272.419 67.2928 270.383 64.0755 269.983 60.4394L289.358 47.8369Z" fill="#B68275"/>
<path d="M254.32 40.4505C253.122 42.8518 252.288 45.4182 251.846 48.0653C251.664 49.9246 251.866 51.8013 252.439 53.5794C253.012 55.3575 253.943 56.999 255.176 58.4024C256.425 59.795 257.949 60.912 259.653 61.6823C261.357 62.4526 263.203 62.8591 265.073 62.8761C267.543 62.8231 269.982 62.3132 272.267 61.3721C278.675 58.9475 284.365 54.9394 288.806 49.7215C289.393 50.51 290.189 51.1174 291.105 51.4742C292.02 51.8311 293.018 51.923 293.983 51.7394C295.908 51.322 297.668 50.349 299.045 48.941C299.706 48.4404 300.244 47.7967 300.62 47.0581C300.996 46.3195 301.199 45.5053 301.215 44.6767C300.968 42.1448 298.018 40.9645 295.505 40.3172C297.61 38.6067 299.356 36.4978 300.644 34.1111C301.664 31.6564 301.952 28.9586 301.472 26.3438C300.993 23.729 299.766 21.3091 297.941 19.3765C296.07 17.4875 293.835 15.9974 291.372 14.9962C288.909 13.995 286.269 13.5034 283.61 13.5511C280.698 13.5511 277.805 14.0271 274.894 14.2746C272.318 14.3337 269.76 14.7174 267.281 15.4168C264.064 16.559 263.627 18.9386 262.351 21.8894L254.32 40.4505Z" fill="#FFE7C4"/>
<path d="M321.77 184.218H312.996C312.065 183.41 311.285 182.444 310.693 181.363C299.026 161.183 300.739 69.3107 304.241 65.2367C307.343 61.5436 318.344 61.9053 321.75 62.1147H322.778L328.012 65.3319C316.212 90.3085 321.77 184.218 321.77 184.218Z" fill="#E1D7CF"/>
<path d="M316.212 181.363H310.693C299.026 161.183 300.739 69.3107 304.241 65.2367C307.343 61.5436 318.344 61.9053 321.75 62.1147L322.436 62.5335C310.636 87.4339 316.212 181.363 316.212 181.363Z" fill="url(#paint8_linear)"/>
<path d="M332.161 200.361C329.339 200.356 326.566 199.618 324.114 198.22C321.662 196.822 319.615 194.811 318.172 192.385L284.942 136.587C284.562 135.876 284.471 135.045 284.687 134.267C284.903 133.49 285.41 132.825 286.102 132.411C286.795 131.997 287.621 131.866 288.407 132.045C289.194 132.223 289.882 132.698 290.328 133.37L323.654 189.206C324.654 190.899 326.133 192.259 327.904 193.113C329.676 193.967 331.66 194.276 333.607 194.003C356.313 190.938 367.637 188.73 371.139 187.588C371.139 184.999 371.139 181.001 371.139 179.402C371.124 178.989 371.19 178.578 371.334 178.191C371.478 177.804 371.697 177.449 371.978 177.147C372.259 176.845 372.597 176.601 372.972 176.429C373.347 176.257 373.753 176.161 374.165 176.146C374.577 176.131 374.989 176.198 375.375 176.342C375.762 176.486 376.117 176.705 376.419 176.986C376.721 177.267 376.965 177.605 377.137 177.98C377.308 178.355 377.404 178.761 377.419 179.173C377.419 179.954 377.667 186.788 377.419 189.682C377.172 192.575 375.668 193.679 359.91 196.421C351.574 197.868 341.506 199.295 334.54 200.228C333.751 200.328 332.956 200.372 332.161 200.361Z" fill="#E1D7CF"/>
<path d="M237.743 210.565C236.674 210.559 235.625 210.277 234.698 209.747C233.353 208.834 232.201 207.665 231.309 206.306C230.418 204.947 229.803 203.425 229.502 201.827L214.086 146.049C213.864 145.244 213.971 144.383 214.383 143.656C214.795 142.93 215.479 142.397 216.284 142.175C217.089 141.953 217.949 142.06 218.676 142.472C219.402 142.884 219.935 143.568 220.157 144.374L235.554 200.152C236.353 203.046 237.457 204.093 237.781 204.264C247.944 201.294 252.588 199.295 254.11 198.382C254.434 193.775 255.69 180.03 255.747 179.345C255.785 178.933 255.903 178.534 256.095 178.168C256.287 177.802 256.549 177.478 256.866 177.214C257.183 176.95 257.549 176.75 257.944 176.628C258.338 176.505 258.752 176.461 259.163 176.499C259.575 176.536 259.974 176.654 260.34 176.846C260.705 177.038 261.029 177.3 261.294 177.618C261.558 177.935 261.757 178.301 261.88 178.696C262.002 179.09 262.046 179.504 262.009 179.916C261.476 185.817 260.429 197.544 260.334 199.676C260.22 202.265 258.05 203.902 251.389 206.415C247.449 207.881 242.729 209.328 239.456 210.223C238.905 210.421 238.327 210.536 237.743 210.565Z" fill="#E1D7CF"/>
<path d="M332.161 200.628C329.339 200.63 326.566 199.898 324.113 198.503C321.66 197.107 319.613 195.097 318.172 192.671L284.923 136.873C284.526 136.163 284.42 135.326 284.628 134.539C284.835 133.752 285.34 133.076 286.036 132.654C286.732 132.232 287.564 132.097 288.358 132.276C289.151 132.456 289.844 132.937 290.29 133.618L323.54 189.415C324.544 191.1 326.02 192.453 327.787 193.306C329.553 194.159 331.531 194.474 333.474 194.213C356.199 191.148 367.523 188.939 371.025 187.797C371.025 185.208 371.025 181.21 371.025 179.592C370.997 178.759 371.301 177.949 371.87 177.34C372.44 176.732 373.227 176.374 374.06 176.346C374.893 176.319 375.703 176.623 376.311 177.192C376.92 177.762 377.277 178.55 377.305 179.383C377.305 180.163 377.572 186.998 377.305 189.891C377.039 192.785 375.554 193.889 359.796 196.63C351.441 198.077 341.392 199.505 334.426 200.438C333.677 200.56 332.92 200.624 332.161 200.628Z" fill="url(#paint9_linear)"/>
<path d="M332.161 200.114C329.34 200.113 326.568 199.378 324.116 197.984C321.664 196.589 319.616 194.581 318.172 192.157L284.942 136.359C284.707 136.005 284.546 135.607 284.47 135.188C284.393 134.77 284.402 134.341 284.496 133.926C284.59 133.512 284.767 133.12 285.017 132.776C285.266 132.432 285.583 132.142 285.948 131.924C286.313 131.706 286.719 131.565 287.14 131.508C287.561 131.451 287.989 131.481 288.399 131.595C288.809 131.709 289.191 131.904 289.522 132.17C289.854 132.436 290.128 132.767 290.328 133.142L323.578 188.92C324.58 190.612 326.059 191.971 327.829 192.828C329.6 193.684 331.583 194 333.531 193.737C356.237 190.653 367.561 188.444 371.063 187.302C371.063 184.713 371.063 180.734 371.063 179.116C371.037 178.296 371.333 177.498 371.888 176.893C372.443 176.288 373.212 175.924 374.032 175.88C374.865 175.859 375.673 176.167 376.282 176.737C376.891 177.306 377.251 178.093 377.286 178.926C377.286 179.687 377.534 186.541 377.286 189.434C377.039 192.328 375.535 193.413 359.777 196.154C351.441 197.601 341.373 199.029 334.407 199.962C333.662 200.062 332.912 200.113 332.161 200.114Z" fill="url(#paint10_linear)"/>
<g opacity="0.69">
<path opacity="0.69" d="M238.047 210.451C236.979 210.445 235.93 210.163 235.002 209.633C232.291 207.781 230.417 204.936 229.787 201.713L214.39 145.916C214.184 145.118 214.3 144.271 214.712 143.558C215.124 142.845 215.8 142.322 216.593 142.103C217.387 141.883 218.235 141.984 218.955 142.384C219.675 142.784 220.209 143.45 220.443 144.24L235.859 200.038C236.117 201.616 236.894 203.063 238.066 204.15C248.248 201.161 252.892 199.181 254.415 198.248C254.738 193.641 255.995 179.897 256.052 179.211C256.089 178.8 256.207 178.4 256.399 178.035C256.591 177.669 256.853 177.345 257.17 177.081C257.488 176.816 257.854 176.617 258.248 176.494C258.642 176.372 259.057 176.328 259.468 176.365C259.879 176.403 260.279 176.521 260.644 176.713C261.01 176.905 261.334 177.167 261.598 177.484C261.862 177.802 262.061 178.168 262.184 178.562C262.307 178.957 262.351 179.371 262.313 179.782C261.78 185.684 260.715 197.411 260.638 199.543C260.524 202.132 258.355 203.769 251.693 206.263C247.754 207.748 243.034 209.195 239.76 210.07C239.211 210.282 238.634 210.41 238.047 210.451Z" fill="url(#paint11_linear)"/>
</g>
<path d="M228.265 156.729C229.748 156.739 231.215 157.037 232.585 157.604C233.266 157.894 233.87 158.337 234.352 158.898C234.834 159.459 235.18 160.124 235.364 160.841C235.63 162.192 235.135 163.639 235.611 164.934C236.087 166.228 236.981 166.837 237.324 167.865C237.971 169.769 236.296 171.977 236.848 173.976C237.096 174.871 237.762 175.613 237.99 176.527C238.165 177.394 238.058 178.295 237.686 179.097C235.782 184.047 229.806 186.331 224.477 186.179C221.356 186.262 218.321 185.152 215.989 183.076C214.267 181.056 213.158 178.585 212.792 175.956C212.082 172.645 211.712 169.271 211.688 165.885C211.612 156.557 220.709 156.367 228.265 156.729Z" fill="url(#paint12_linear)"/>
<path d="M370.53 116.561C370.53 116.561 396.756 166.59 389.296 174.662C381.835 182.733 322.131 176.87 322.131 176.87C316.707 176.603 312.444 181.305 307.077 182.048C305.125 182.296 303.142 181.999 301.348 181.189C299.554 180.38 298.019 179.089 296.914 177.46C296.345 176.277 295.503 175.246 294.459 174.452C293.888 174.128 293.203 174.014 292.556 173.729C290.119 172.586 289.701 169.312 289.777 166.609C289.856 166.092 289.762 165.563 289.51 165.105C289.3 164.85 289.049 164.631 288.768 164.458C287.994 163.716 287.484 162.742 287.316 161.683C287.147 160.624 287.33 159.54 287.836 158.594C288.925 156.717 290.645 155.287 292.689 154.558C294.592 153.74 296.781 153.321 298.798 152.655C301.489 151.731 303.995 150.339 306.202 148.543C307.648 147.362 309.418 145.916 311.169 146.639C311.807 146.939 312.372 147.374 312.825 147.915L318.534 153.778C319.191 154.655 320.059 155.35 321.058 155.8C322.056 156.249 323.153 156.438 324.244 156.348L344.247 157.071C348.59 157.496 352.975 157.095 357.17 155.891L343.01 136.169C342.496 135.445 341.963 134.551 342.324 133.732C342.585 133.294 342.969 132.943 343.428 132.723C352.583 127.145 361.49 122.043 370.53 116.561Z" fill="url(#paint13_linear)"/>
<path d="M295.334 43.0776C295.601 43.004 295.88 42.9847 296.154 43.0206C296.429 43.0566 296.694 43.1472 296.933 43.2871C297.635 43.5499 298.209 44.0755 298.531 44.7531C298.626 45.2737 298.588 45.8097 298.422 46.3121C298.256 46.8144 297.966 47.2669 297.58 47.6281C297.155 48.2398 296.607 48.7557 295.971 49.1426C295.336 49.5296 294.626 49.779 293.887 49.8747C293.274 49.8865 292.672 49.7104 292.162 49.3701C291.652 49.0298 291.258 48.5415 291.033 47.9708C290.837 47.3917 290.871 46.7599 291.125 46.2043C291.38 45.6488 291.837 45.2115 292.403 44.9816C292.955 44.8293 293.431 44.9816 293.945 44.5627C294.458 44.1438 294.687 43.3442 295.334 43.0776Z" fill="#D9C5A7"/>
<path d="M269.355 189.853L265.111 190.634L262.485 191.109L251.275 153.607C230.701 118.617 238.961 81.2659 242.216 77.4585C243.548 75.8784 247.24 74.66 251.085 73.7843C254.733 72.9474 258.424 72.3119 262.142 71.8806C251.846 94.5727 269.355 189.853 269.355 189.853Z" fill="#E1D7CF"/>
<path d="M265.149 190.634L262.523 191.11L251.313 153.607C230.739 118.617 238.999 81.2659 242.253 77.4585C243.586 75.8784 247.278 74.6601 251.122 73.7844C254.967 72.9087 257.955 72.7944 257.955 72.7944C247.773 95.0868 264.654 187.949 265.149 190.634Z" fill="#E1D7CF"/>
<path d="M351.193 127.564C351.193 127.564 369.064 151.17 366.038 154.216C363.012 157.262 355.247 156.9 355.247 156.9C355.587 156.168 355.719 155.356 355.629 154.553C355.538 153.75 355.228 152.988 354.733 152.35C353.039 149.818 341.239 133.313 341.239 133.313L351.193 127.564Z" fill="url(#paint14_linear)"/>
<defs>
<linearGradient id="paint0_linear" x1="167.072" y1="212.165" x2="167.072" y2="600.57" gradientUnits="userSpaceOnUse">
<stop stop-color="#FFA755"/>
<stop offset="0.666667" stop-color="white"/>
<stop offset="1" stop-color="white"/>
</linearGradient>
<linearGradient id="paint1_linear" x1="291.49" y1="49.1314" x2="332.487" y2="436.894" gradientUnits="userSpaceOnUse">
<stop stop-opacity="0"/>
<stop offset="0.99"/>
</linearGradient>
<linearGradient id="paint2_linear" x1="239.584" y1="148.672" x2="239.584" y2="200.533" gradientUnits="userSpaceOnUse">
<stop stop-color="#FFE7C3"/>
<stop offset="1" stop-color="#FFE7C3"/>
</linearGradient>
<linearGradient id="paint3_linear" x1="240.74" y1="153.862" x2="243.783" y2="181" gradientUnits="userSpaceOnUse">
<stop stop-color="#B68275"/>
<stop offset="0.793302" stop-color="#E09887"/>
</linearGradient>
<linearGradient id="paint4_linear" x1="7570.36" y1="1826.68" x2="7582.96" y2="2143.75" gradientUnits="userSpaceOnUse">
<stop stop-opacity="0"/>
<stop offset="0.99"/>
</linearGradient>
<linearGradient id="paint5_linear" x1="31344" y1="55220.9" x2="44560.9" y2="47453.8" gradientUnits="userSpaceOnUse">
<stop stop-opacity="0"/>
<stop offset="0.99"/>
</linearGradient>
<linearGradient id="paint6_linear" x1="528.584" y1="185.075" x2="528.584" y2="617.671" gradientUnits="userSpaceOnUse">
<stop stop-color="#FFA755"/>
<stop offset="0.666667" stop-color="white"/>
<stop offset="1" stop-color="white"/>
</linearGradient>
<linearGradient id="paint7_linear" x1="283.202" y1="46.7269" x2="283.202" y2="92.9997" gradientUnits="userSpaceOnUse">
<stop stop-color="#FFE7C3"/>
<stop offset="1" stop-color="#F5D29C"/>
</linearGradient>
<linearGradient id="paint8_linear" x1="3923.65" y1="10949.6" x2="633.386" y2="12510.9" gradientUnits="userSpaceOnUse">
<stop stop-opacity="0"/>
<stop offset="0.99"/>
</linearGradient>
<linearGradient id="paint9_linear" x1="15258.1" y1="9833.41" x2="18929.2" y2="6404.61" gradientUnits="userSpaceOnUse">
<stop stop-opacity="0"/>
<stop offset="0.99"/>
</linearGradient>
<linearGradient id="paint10_linear" x1="317.563" y1="169.217" x2="303.078" y2="176.981" gradientUnits="userSpaceOnUse">
<stop offset="0.02" stop-color="white" stop-opacity="0"/>
<stop offset="0.58" stop-color="white" stop-opacity="0.39"/>
<stop offset="0.68" stop-color="white" stop-opacity="0.68"/>
<stop offset="1" stop-color="white"/>
</linearGradient>
<linearGradient id="paint11_linear" x1="6295.13" y1="9489.84" x2="6031.23" y2="9539.01" gradientUnits="userSpaceOnUse">
<stop offset="0.02" stop-color="white" stop-opacity="0"/>
<stop offset="0.58" stop-color="white" stop-opacity="0.39"/>
<stop offset="0.68" stop-color="white" stop-opacity="0.68"/>
<stop offset="1" stop-color="white"/>
</linearGradient>
<linearGradient id="paint12_linear" x1="224.88" y1="156.632" x2="224.88" y2="186.186" gradientUnits="userSpaceOnUse">
<stop stop-color="#FBE1BE"/>
<stop offset="1" stop-color="#F2D3B2"/>
</linearGradient>
<linearGradient id="paint13_linear" x1="338.943" y1="116.561" x2="338.943" y2="182.133" gradientUnits="userSpaceOnUse">
<stop stop-color="#FFE7C3"/>
<stop offset="1" stop-color="#EBC9AA"/>
</linearGradient>
<linearGradient id="paint14_linear" x1="346.312" y1="132.543" x2="361.522" y2="162.463" gradientUnits="userSpaceOnUse">
<stop offset="0.224909" stop-color="#B68275"/>
<stop offset="0.609375" stop-color="#B68275"/>
<stop offset="1" stop-color="#FFB4A2"/>
</linearGradient>
</defs>
</svg>
